<svg fill="none" width="24" height="24" viewBox="0 0 24 24" xmlns="http://www.w3.org/2000/svg">
  <!-- globe -->
  <symbol id="globe" fill="none" width="24" height="24" viewBox="0 0 24 24">
    <path stroke="currentColor" stroke-linecap="round" stroke-linejoin="round" stroke-width="1.5"
      d="M12 21c4.9707 0 9-4.0293 9-9s-4.0293-9-9-9-9 4.0293-9 9 4.0293 9 9 9Z" />
    <path stroke="currentColor" stroke-linecap="round" stroke-linejoin="round" stroke-width="1.5"
      d="M12 21c2.7615 0 5-4.0293 5-9s-2.2385-9-5-9-5 4.0293-5 9 2.2385 9 5 9Z" />
    <path stroke="currentColor" stroke-width="1.5" d="M3 12h18M12 3v18" />
  </symbol>
  <!-- usdc -->
  <symbol id="usdc" fill="none" width="24" height="24" viewBox="0 0 24 24">
    <g clip-path="url(#a)">
      <path stroke="currentColor" stroke-width="1.5"
        d="M8.33138 18.944C5.75861 17.6453 4 15.0232 4 12s1.75861-5.6453 4.33138-6.94403M15.5556 19C18.1897 17.7217 20 15.0673 20 12c0-3.06728-1.8103-5.72169-4.4444-7" />
      <path fill="currentColor"
        d="M14.2887 9.66981c-.056-.44654-.287-.79245-.6929-1.03773-.4059-.24843-.9169-.37265-1.5328-.37265-.441 0-.8224.0629-1.1444.18868-.3219.12264-.5721.29246-.7506.50944-.175.21383-.26249.45754-.26249.73113 0 .22956.05949.42772.17849.59432.1225.1667.2817.3066.4777.4198.1995.1101.4129.2029.6404.2783.2275.0724.4462.1321.6562.1793l1.0498.2453c.343.0754.6947.1776 1.0552.3066.3604.1289.6946.2987 1.0026.5094.3079.2107.5564.4717.7454.783.1925.3113.2887.684.2887 1.1179 0 .5472-.1575 1.0331-.4724 1.4576-.3115.4245-.7647.7594-1.3596 1.0047-.5914.2453-1.3071.3679-2.147.3679-.8049 0-1.5013-.1148-2.08924-.3443-.58793-.2296-1.04812-.555-1.38058-.9764-.33246-.4246-.51618-.9277-.55118-1.5095h1.6273c.03149.3491.15748.64.3779.8727.224.2295.5092.4009.8557.5141.3499.1101.7332.1651 1.1496.1651.4584 0 .8661-.0644 1.2231-.1934.3605-.132.6439-.3144.8504-.5471.2065-.2359.3097-.511.3097-.8255 0-.2862-.091-.5204-.273-.7028-.1784-.1824-.4217-.3334-.7296-.4529-.3045-.1195-.6492-.2248-1.0341-.316l-1.2704-.3113c-.8609-.2107-1.54329-.5205-2.04723-.9293-.50044-.4088-.75066-.9497-.75066-1.62262 0-.5566.16798-1.04245.50394-1.45754.33596-.4151.7909-.73742 1.36485-.96698C10.7314 7.11635 11.3788 7 12.0997 7c.7279 0 1.3701.11478 1.9265.34434.56.22956 1.0009.5456 1.3229.94811.3219.39937.4899.85849.5039 1.37736h-1.5643Z" />
      <path stroke="currentColor" stroke-width="1.5" d="M12 5v14" />
      <circle cx="12" cy="12" r="11" stroke="currentColor" stroke-width="1.5" />
    </g>
    <defs>
      <clipPath id="a">
        <path fill="#fff" d="M0 0h24v24H0z" />
      </clipPath>
    </defs>
  </symbol>
  <!-- checkmark-circle -->
  <symbol id="checkmark-circle" fill="none" width="24" height="24" viewBox="0 0 24 24">
    <path stroke="currentColor" stroke-width="1.5" d="m6.5 11 4.2368 4.5L20 6" />
    <path stroke="currentColor" stroke-width="1.5"
      d="M19.5 5.5C21 7 22 9.74879 22 12c0 5.5228-4.4772 10-10 10-5.52285 0-10-4.4772-10-10C2 6.47715 6.47715 2 12 2c1.6186 0 3.1474.38456 4.5 1.06729" />
  </symbol>
  <!-- info -->
  <symbol id="info" fill="none" width="24" height="24" viewbox="0 0 24 24">
    <path stroke="currentColor" stroke-width="1.5" d="M12 17.102v-6" />
    <circle cx="12" cy="8.402" r=".402" fill="currentColor" stroke="currentColor" stroke-width="1.5"
      transform="rotate(-180 12 8.402)" />
    <path stroke="currentColor" stroke-width="1.5" d="M7.873 20a9 9 0 1 1 8.127.064" />
  </symbol>
  <!-- eth -->
  <symbol id="eth" fill="none" width="24" height="24" viewbox="0 0 24 24">
    <path fill="currentColor" fill-rule="evenodd"
      d="M12.692 15.956v3.477l3.55-5.66-3.55 2.183Zm-1.302 3.637v-3.578l-3.692-2.307 3.692 5.885Zm1.302-5.165 4.62-2.84-4.62-7.835v10.675Zm-1.302.052V3.583l-4.695 7.963 4.695 2.934Zm.6 8.52 6.991-11.142L11.991 0 5 11.858 11.99 23Z"
      clip-rule="evenodd" />
  </symbol>
  <!-- twitter -->
  <symbol id="twitter" fill="none" width="24" height="24" viewbox="0 0 24 24">
    <path stroke="currentColor" stroke-linecap="round" stroke-linejoin="round" stroke-width="1.5"
      d="M23 3.01s-2.018 1.192-3.14 1.53a4.48 4.48 0 0 0-7.86 3v1a10.66 10.66 0 0 1-9-4.53s-4 9 5 13a11.64 11.64 0 0 1-7 2c9 5 20 0 20-11.5 0-.278-.028-.556-.08-.83C21.94 5.674 23 3.01 23 3.01Z" />
  </symbol>
  <!-- error -->
  <symbol id="error" fill="none" width="24" height="24" viewbox="0 0 24 24">
    <path stroke="currentColor" stroke-width="1.5"
      d="M15 21.0938h7.5006L12.0001 2.90625 6.74979 12l-5.25028 9.0938H9M12 9v6" />
    <circle cx="12.0002" cy="17.7001" r=".401558" fill="currentColor" stroke="currentColor"
      stroke-width="1.5" />
  </symbol>
  <!-- edit -->
  <symbol id="edit" width="24" height="24" fill="none">
    <g stroke="currentColor" stroke-width="1.5" clip-path="url(#a)">
      <path
        d="m17.7188 1.52941 5.2516 5.25162L9.44849 20.3029 2.6515 21.8483l1.54536-6.797L17.7188 1.52941ZM15 5l4.5358 4.53578M5 15l5 5M2.83984 19.2932l2.36711 2.3671" />
    </g>
    <defs>
      <clipPath id="a">
        <path fill="#fff" d="M0 0h24v24H0z" />
      </clipPath>
    </defs>
  </symbol>
  <!-- caret-down -->
  <symbol id="caret-down" width="24" height="24" fill="none">
    <svg fill="none">
      <path stroke="currentColor" stroke-width="1.5" d="m6 9 6 6 6-6" />
    </svg>
  </symbol>
  <!-- lock -->
  <symbol id="lock" width="24" height="24" fill="none">
    <svg fill="none">
      <path fill="currentColor" fill-rule="evenodd"
        d="M8.19134 5.06191C8.93037 4.03543 10.1555 3.25 12 3.25c1.8445 0 3.0696.78543 3.8087 1.81191.7115.98824.9413 2.15155.9413 2.93809v3.25h.65c.358 0 .7014.1422.9546.3954s.3954.5966.3954.9546v6.8c0 .358-.1422.7014-.3954.9546s-.5966.3954-.9546.3954H6.6c-.35804 0-.70142-.1422-.95459-.3954C5.39223 20.1014 5.25 19.758 5.25 19.4v-6.8c0-.358.14223-.7014.39541-.9546.25317-.2532.59655-.3954.95459-.3954h.65V8c0-.78654.22984-1.94985.94134-2.93809ZM8.75 11.25h6.5V8c0-.54646-.1702-1.38315-.6587-2.06166C14.1304 5.29807 13.3555 4.75 12 4.75s-2.13037.54807-2.59134 1.18834C8.92016 6.61685 8.75 7.45354 8.75 8v3.25Zm-2 1.5v6.5h10.5v-6.5H6.75Z"
        clip-rule="evenodd" />
    </svg>
  </symbol>
  <!-- menu -->
  <symbol id="menu" width="24" height="24" fill="none">
    <path stroke="currentColor" stroke-width="1.5" d="M3 5h18M3 12h18M3 19h18" />
  </symbol>
  <!-- usdb -->
  <symbol id="usdb" width="24" height="24" fill="none">
    <path fill="currentColor"
      d="m8.432 10.34.374-1.154L6.9 7.79l-1.091 3.347 1.897 1.394-.003.01h8.539l-.823 2.536H4.56l-.73 2.25h10.86l2.84-1.414 1.397-4.306-1.757-1.29-8.737.023Z" />
    <path fill="currentColor" d="M9.847 5.578 6.9 7.791l13.01.004.718-2.217H9.847Z" />
    <path fill="currentColor" d="M10.086 21.16 16.25 2h-2.185l-6.1 19.16h2.121Z" />
  </symbol>
  <!-- user -->
  <symbol id="user" width="24" height="24" fill="none">
    <g fill="currentColor">
      <circle cx="8.381" cy="5.834" r="5.334" />
      <path d="M16.763 21.55H0a8.381 8.381 0 1 1 16.763 0Z" />
    </g>
  </symbol>
  <!-- email -->
  <symbol id="email" width="24" height="24" fill="none">
    <path stroke="currentColor" stroke-linecap="round" stroke-linejoin="round" stroke-width="1.5"
      d="m3 6 9 6.5L21 6" />
    <path stroke="currentColor" stroke-width="1.5"
      d="M2 17V7a2 2 0 0 1 2-2h16a2 2 0 0 1 2 2v10a2 2 0 0 1-2 2H4a2 2 0 0 1-2-2Z" />
  </symbol>
  <!-- close -->
  <symbol id="close" width="24" height="24" fill="none">
    <g fill="currentColor" fill-rule="evenodd" clip-path="url(#a)" clip-rule="evenodd">
      <path d="M5.106 17.834 17.834 5.106l1.06 1.06L6.166 18.894l-1.06-1.06Z" />
      <path d="m6.166 5.106 12.728 12.728-1.06 1.06L5.106 6.166l1.06-1.06Z" />
    </g>
    <defs>
      <clipPath id="a">
        <path fill="#fff" d="M0 0h24v24H0z" />
      </clipPath>
    </defs>
  </symbol>
  <!-- luck -->
  <symbol id="luck" width="24" height="24" fill="none">
    <path fill="currentColor" fill-rule="evenodd"
      d="M9.238 3.23a3.028 3.028 0 0 1 3.197.558 3.028 3.028 0 0 1 4.147.114 3.003 3.003 0 0 1 .856 2.658 3.068 3.068 0 0 1 2.668.822l.006.007a3.028 3.028 0 0 1 .1 4.179 3.028 3.028 0 0 1-.114 4.147c-1.205 1.225-3.192 1.223-4.614-.168a.658.658 0 0 1 .92-.941c.964.943 2.117.836 2.756.185l.003-.003a1.711 1.711 0 0 0 0-2.415l-.01-.011-.334-.351a.658.658 0 0 1 .012-.919l.35-.35a1.713 1.713 0 0 0 .004-2.419c-.66-.638-1.819-.735-2.779.201L12.9 12.032a.658.658 0 0 1-.93 0L8.46 8.524c-.964-.94-2.116-.832-2.754-.182l-.003.003a1.711 1.711 0 0 0 0 2.415l.01.01.334.352a.658.658 0 0 1-.012.918l-.35.352a1.712 1.712 0 0 0-.004 2.418c.66.638 1.82.735 2.781-.204a.658.658 0 1 1 .92.941c-1.424 1.394-3.404 1.387-4.622.203l-.006-.006a3.028 3.028 0 0 1-.1-4.179 3.027 3.027 0 0 1 .115-4.147 3.003 3.003 0 0 1 2.657-.856 3.068 3.068 0 0 1 .823-2.668l.006-.006c.281-.282.615-.505.982-.657Zm.153 4.363 3.043 3.043 3.042-3.043c.94-.963.832-2.115.182-2.753l-.003-.003a1.711 1.711 0 0 0-2.415 0l-.01.01-.352.334a.658.658 0 0 1-.919-.012l-.35-.35a1.712 1.712 0 0 0-2.419-.004c-.638.66-.735 1.819.201 2.778Z"
      clip-rule="evenodd" />
    <path fill="currentColor" fill-rule="evenodd"
      d="M11.986 11.11a.658.658 0 0 1 .93 0l3.516 3.515c1.392 1.424 1.39 3.409.18 4.62a3.028 3.028 0 0 1-4.18.1 3.028 3.028 0 0 1-4.148-.116.655.655 0 0 1-.067-.077 2.97 2.97 0 0 1-.786-1.652l-3.307 3.307a.658.658 0 0 1-.931-.93l4.388-4.388c.1-.1.223-.161.353-.183a4 4 0 0 1 .536-.68l.006-.006 3.51-3.51Zm-2.708 7.248a1.71 1.71 0 0 0 2.35-.062l.01-.01.351-.334a.658.658 0 0 1 .919.011l.35.351a1.713 1.713 0 0 0 2.422 0c.648-.648.753-1.803-.187-2.766l-3.042-3.042-3.042 3.042c-.94.964-.833 2.115-.183 2.753a.671.671 0 0 1 .052.057Z"
      clip-rule="evenodd" />
  </symbol>
  <!-- twitter-filled -->
  <symbol id="twitter-filled" width="24" height="24" fill="none">
    <path fill="currentColor"
      d="M24 4.294a9.83 9.83 0 0 1-2.822.792 4.931 4.931 0 0 0 2.157-2.73 9.913 9.913 0 0 1-3.12 1.204C19.307 2.574 18.034 2 16.588 2c-2.696 0-4.899 2.203-4.899 4.922 0 .39.046.768.126 1.124a13.99 13.99 0 0 1-10.141-5.14 4.87 4.87 0 0 0-.665 2.467c0 1.71.86 3.224 2.19 4.084-.814 0-1.57-.23-2.236-.574v.035a4.925 4.925 0 0 0 3.946 4.83 4.84 4.84 0 0 1-2.214.08 4.91 4.91 0 0 0 4.589 3.419 9.777 9.777 0 0 1-6.115 2.11c-.39 0-.78-.022-1.17-.068a13.933 13.933 0 0 0 7.549 2.214c9.04 0 14.007-7.503 14.007-14.008 0-.218 0-.424-.011-.642A9.833 9.833 0 0 0 24 4.294Z" />
  </symbol>
  <!-- discord -->
  <symbol id="discord" width="24" height="24" fill="none">
    <path fill="currentColor"
      d="M20.307 4.52A19.41 19.41 0 0 0 15.427 3a.103.103 0 0 0-.08.034c-.206.377-.446.869-.606 1.246a18.389 18.389 0 0 0-5.486 0c-.16-.388-.4-.869-.617-1.246C8.627 3.011 8.592 3 8.558 3a19.556 19.556 0 0 0-4.88 1.52c-.011 0-.023.012-.034.023C.535 9.195-.322 13.72.1 18.2c0 .022.011.045.034.057a19.856 19.856 0 0 0 5.989 3.028c.034.012.068 0 .08-.023.457-.628.868-1.291 1.223-1.988.023-.046 0-.092-.046-.103a14.074 14.074 0 0 1-1.874-.892c-.046-.022-.046-.091-.012-.125.126-.092.252-.195.377-.286a.07.07 0 0 1 .08-.011c3.932 1.794 8.172 1.794 12.058 0a.07.07 0 0 1 .08.011c.125.103.251.194.377.297.046.035.046.103-.011.126-.595.354-1.223.64-1.875.891-.046.012-.057.069-.046.103.366.697.778 1.36 1.223 1.989.035.011.069.023.103.011a19.776 19.776 0 0 0 6-3.028.063.063 0 0 0 .035-.057c.503-5.178-.835-9.67-3.543-13.658-.012-.011-.023-.023-.046-.023ZM8.021 15.47c-1.177 0-2.16-1.086-2.16-2.423s.96-2.423 2.16-2.423c1.211 0 2.171 1.097 2.16 2.423 0 1.337-.96 2.423-2.16 2.423Zm7.966 0c-1.177 0-2.16-1.086-2.16-2.423s.96-2.423 2.16-2.423c1.211 0 2.171 1.097 2.16 2.423 0 1.337-.949 2.423-2.16 2.423Z" />
  </symbol>
  <!-- user-outline -->
  <symbol id="user-outline" width="24" height="24" fill="none">
    <path stroke="currentColor" stroke-width="1.5"
      d="M11.727 9.727a4.364 4.364 0 1 0 0-8.727 4.364 4.364 0 0 0 0 8.727Z" />
    <path stroke="currentColor" stroke-linecap="round" stroke-width="1.5"
      d="M20.451 18.454c.003-.178.003-.36.003-.545 0-2.71-3.907-4.909-8.727-4.909S3 15.198 3 17.91c0 2.71 0 4.908 8.727 4.908 2.434 0 4.19-.171 5.455-.477" />
  </symbol>
  <!-- explosion -->
  <symbol id="explosion" width="24" height="24" fill="none">
    <path fill="currentColor" fill-rule="evenodd"
      d="m17.265 16.53 4.556-2.552a.305.305 0 0 1 .392.082.29.29 0 0 1-.032.383l-3.42 3.403h-2.225a4.704 4.704 0 0 0-3.065-2.507L21.71 2.142a.303.303 0 0 1 .398-.107.29.29 0 0 1 .134.378l-5.908 13.071.328.342c.078.08.154.168.23.259l.373.444ZM12.599 7.58l.739 7.726a4.73 4.73 0 0 0-1.038-.115 4.697 4.697 0 0 0-4.237 2.654H5.426l-2.967-2.041a.295.295 0 0 1-.097-.373.302.302 0 0 1 .361-.152l4.513 1.405.297-.385a6.37 6.37 0 0 1 .353-.423l.355-.386-2.867-4.753v-.002a.29.29 0 0 1 .064-.374.307.307 0 0 1 .392.002l4.545 3.882.354-.094c.067-.018.108-.029.145-.036l.51-.102.617-6.433a.298.298 0 0 1 .299-.268c.158 0 .284.118.3.268ZM1 21.204c0-.344.28-.627.633-.627h21.334c.354 0 .633.283.633.627 0 .344-.28.627-.633.627H1.633A.629.629 0 0 1 1 21.204ZM12.3 2.002c.17 0 .3.133.3.295v1.99c0 .162-.13.295-.3.295-.17 0-.3-.133-.3-.295v-1.99c0-.162.13-.295.3-.295Z"
      clip-rule="evenodd" />
  </symbol>
</svg>